<svg width="97" height="32" viewBox="0 0 97 32" fill="none" xmlns="http://www.w3.org/2000/svg">
<path fill-rule="evenodd" clip-rule="evenodd" d="M37.1301 27.0459C33.5322 24.7762 28.6494 24.378 20.7749 26.5174C19.5742 26.7937 18.488 27.0558 17.4973 27.2949L17.4973 27.2949C11.5614 28.7273 9.05531 29.332 5.90521 27.2016C4.49303 25.9804 3.98673 24.0141 4.36479 21.1818C5.24166 16.5647 7.61133 12.1214 11.8205 7.19279C14.1699 4.62893 16.3493 2.42866 19.227 1.54513C21.4325 0.990857 21.2263 2.68822 20.9595 2.93097C20.6778 2.93097 20.2048 2.97441 19.8392 3.20805C19.5424 3.4334 18.7279 4.16106 18.6842 5.13988C18.6211 6.63829 20.2045 6.32642 20.8875 5.50371C21.6237 4.57662 22.7117 2.80125 21.8559 1.14662C21.4972 0.557668 20.8774 0.150636 20.1078 0.0120394C17.4728 -0.135434 15.0187 1.09466 12.7537 2.45458C7.80048 5.82411 3.83819 10.4931 1.59616 15.6038C0.303635 18.6873 -0.865364 23.1044 0.886805 26.6995C2.24242 29.194 5.0565 30.5191 8.41399 30.242C10.4023 30.0374 12.7418 29.4742 14.5747 29.033L14.5748 29.033L14.5753 29.0328C14.913 28.9516 15.2334 28.8744 15.5313 28.8044C15.7045 28.7636 15.9423 28.6995 16.2339 28.621L16.234 28.6209C19.1662 27.8306 27.541 25.5733 30.4706 30.7971C30.4706 30.7971 31.5417 28.761 34.2185 28.7175C36.4192 28.5187 39.5941 29.3414 41.9059 31.0042C41.1357 29.8699 38.9519 28.1981 37.1301 27.0459ZM92.1211 4.27156C89.9124 5.46401 87.6227 6.23623 84.8512 5.96766C84.0832 6.79069 83.3353 7.63863 82.6459 8.51169C86.536 9.45209 90.6599 7.36145 92.96 5.37177C95.3932 3.365 96.6407 0.837951 96.6407 0.837951C96.6407 0.837951 94.8169 2.81925 92.1211 4.27156ZM59.7633 16.2865C59.469 15.6821 58.7708 15.2958 58.0265 15.3377C55.6098 15.5478 53.2459 17.4368 52.0046 20.1486C51.3533 21.5425 50.9978 22.6926 50.7648 24.523C51.5163 23.7004 53.0492 22.3487 54.7888 21.6097C54.7888 21.6097 55.0255 19.855 56.2325 18.2933C56.6892 17.6466 57.6031 16.6055 58.6294 16.8825C59.5262 17.168 59.211 19.5275 58.0192 21.8107C57.1373 23.4902 55.7879 25.1699 54.4226 26.3283C53.2154 27.3022 51.4294 28.4776 49.8669 27.571C48.8827 27.0171 48.3807 25.858 48.4867 24.3636C48.9569 20.1237 50.9876 16.5133 53.8934 12.3993C56.8897 8.57903 60.1925 4.65807 64.6419 2.56709C65.5494 2.13056 66.3898 2.02983 67.1163 2.29852C67.1163 2.29852 62.9396 4.48151 60.9487 8.52017L60.9265 8.56498C60.4221 9.58481 59.7481 10.9474 60.4472 12.1556C60.8178 12.7936 61.4759 12.8441 62.0059 12.8104C64.4463 12.2729 66.023 10.1068 67.3113 8.12552C68.0581 6.62262 68.722 5.1281 68.722 3.46562C68.722 3.26416 68.711 2.99559 68.6931 2.7939C69.859 2.20639 72.2499 3.24729 72.2499 3.24729C73.3481 3.59289 75.1751 4.73614 76.7673 5.73244L76.7674 5.73247C77.884 6.4312 78.8852 7.05764 79.4383 7.28596C80.0929 6.564 81.1686 5.47262 81.7744 4.92675L80.8975 4.41451C79.5523 3.63406 78.1336 2.89206 76.7325 2.15923L76.7325 2.1592L76.7323 2.15914L76.5496 2.06356C73.2329 0.342568 70.5331 0.94694 69.1592 1.4172C68.6192 1.60179 68.1257 1.76137 68.1257 1.76137C67.1061 0.703494 65.4336 0.803993 64.2014 1.08966C59.7701 2.29863 55.6558 5.24558 51.2448 10.359C48.0018 14.364 45.9902 17.8233 44.9181 21.2404C44.0916 23.5409 43.8404 26.9245 45.8576 28.9313C47.5726 30.6353 49.8467 30.2661 51.4525 29.6535C54.9319 28.0246 58.0591 24.5148 59.6174 20.4761C59.9935 19.2757 60.4107 17.5797 59.7633 16.2865ZM13.3673 13.1464C16.315 9.40184 19.9951 7.21885 21.8261 8.36071C23.5177 9.53233 22.219 12.4762 21.8008 13.4241C21.7576 13.5222 21.7237 13.5989 21.7036 13.6501C22.3605 13.8099 24.4612 12.3827 25.6861 11.0979C26.6591 10.0734 28.3258 8.75536 29.3789 8.37769C30.1655 8.01642 31.381 7.89905 32.1777 8.35222C32.7124 8.64637 33.0705 9.25074 33.1082 9.88896C33.2135 11.6689 31.0348 14.5909 29.9423 13.1132C29.7175 12.475 29.9632 11.7948 30.6705 11.0894C31.0295 10.7368 31.4712 10.5775 32.0225 10.5943C32.2397 10.2668 32.1843 9.78858 31.8408 9.59515C31.4805 9.3852 30.7542 9.52838 30.0861 10.0234C27.719 11.8119 25.639 14.776 24.4319 18.0422C24.2181 18.655 24.1015 19.5881 24.4805 20.2263C25.5172 21.7452 27.9438 19.6311 27.9438 19.6311C29.5817 18.2458 31.1613 16.3265 32.402 14.6219C35.6245 10.189 39.9049 6.36633 41.7951 8.8515C41.8103 8.87054 41.8286 8.89891 41.846 8.92587C41.8672 8.95868 41.887 8.98938 41.8983 8.99858C41.9254 8.96496 42.2587 8.45249 42.2587 8.45249H45.3095C45.3095 8.45249 38.8479 19.1046 38.8395 19.1215C38.7051 19.3812 38.6193 19.748 38.837 19.9243C39 20.0336 39.2745 19.9132 39.3151 19.8954L39.3202 19.8932C40.8342 19.1951 43.0867 16.2257 43.5165 15.6591C43.5625 15.5986 43.5876 15.5654 43.5888 15.5654H44.6396C42.9923 17.8598 40.9527 20.5143 38.421 22.2102C37.7181 22.6552 36.7934 23.1293 35.8798 22.8184C35.0128 22.2994 35.0681 21.6661 35.1338 20.9125L35.1338 20.9124L35.1338 20.9122C35.1414 20.8245 35.1492 20.7351 35.1557 20.6441C35.1555 20.6441 35.154 20.6457 35.1511 20.6488C35.1476 20.6525 35.1422 20.6584 35.1349 20.6663L35.1348 20.6665C34.8953 20.928 32.6445 23.3857 30.744 22.8605C30.0801 22.659 29.0186 22.1128 29.8061 19.5099C29.8061 19.5099 29.8663 19.2753 29.9125 19.0996C29.7299 19.2672 29.407 19.5607 29.407 19.5607C27.5123 21.324 25.3646 23.3057 22.6749 22.8772C20.8607 22.3414 20.721 20.6995 20.66 19.9825C20.6531 19.9019 20.6473 19.8331 20.6401 19.7787C20.4286 18.1344 22.3485 14.9337 22.6144 14.4905L22.6144 14.4904C22.6336 14.4585 22.6441 14.4409 22.6447 14.4392C22.0615 14.5988 21.5439 14.7164 21.1142 14.7916C21.081 14.8421 20.3858 15.9336 20.3858 15.9336L20.3428 16.0014L20.3428 16.0014C19.5996 17.173 18.8287 18.3883 17.8363 19.4015L17.6443 19.5948C16.1568 21.2486 12.6588 24.3382 10.7747 22.2141C9.50797 20.4089 10.6719 16.5052 13.3673 13.1464ZM39.2767 10.2415C38.8555 10.5941 37.1282 12.6848 36.5347 13.4655C34.1484 16.5219 33.3752 18.7297 33.3113 19.4515C33.2887 19.6699 33.3678 19.8798 33.5682 20.0058C33.7346 20.1238 33.9847 20.107 34.1364 20.0646C35.2004 19.5022 35.8526 18.6961 36.5004 17.756C36.5004 17.756 36.9625 17.0845 36.9595 17.0928C38.4262 14.7753 39.9863 12.1976 41.308 9.94747C41.259 9.57829 40.693 9.0572 39.2767 10.2415ZM19.9379 14.8172C19.9379 14.8172 19.9112 14.893 19.8982 14.9178C19.8948 14.9178 18.5679 16.9746 18.5679 16.9746L18.5489 16.9988C17.7514 18.0109 16.7576 19.2721 15.5177 19.8799C15.1473 19.9974 14.6352 20.0732 14.3742 19.7628C13.8211 19.1329 14.1062 18.2596 14.3378 17.5546L14.4199 17.3026C15.0839 15.59 16.1375 14.0784 17.1632 12.6762C17.176 12.6679 17.2048 12.6596 17.2151 12.6596C17.216 12.6625 17.2171 12.6644 17.2182 12.6663C17.2202 12.67 17.2224 12.6738 17.2235 12.6848C17.867 13.8601 19.0738 14.4056 19.9763 14.6579C19.9817 14.6579 19.9876 14.6662 19.9876 14.6831C19.9877 14.7081 19.973 14.7419 19.9379 14.8172ZM20.6039 13.684C20.6039 13.684 21.1889 12.4078 21.1949 12.391C21.3958 11.8199 21.573 11.207 21.5729 10.6615C21.5729 10.2583 21.476 9.88896 21.2202 9.60341C20.8055 9.29262 20.0913 9.45209 19.6319 9.75462C19.1532 10.0987 18.0666 11.0475 18.331 12.2565C18.5228 12.8778 19.1449 13.3984 19.9696 13.6417L20.2323 13.684L20.2527 13.6884C20.3974 13.7204 20.5231 13.7481 20.6039 13.684ZM62.1814 11.8366C63.1974 11.6019 67.3035 8.65463 67.7641 3.63369C67.7821 3.44875 67.7838 3.31475 67.7221 3.1048C65.1923 4.33913 62.8341 6.74859 61.4531 9.58677C60.5151 11.6939 61.5657 11.954 62.1814 11.8366ZM47.4827 8.45272H50.38L48.7451 10.9767H45.8484L47.4827 8.45272ZM84.7091 27.2377C84.3982 27.4414 83.9613 27.2848 84.1246 26.8179C84.5315 25.6292 86.149 23.2066 86.149 23.2066L90.6541 15.5114H87.5682C87.4215 15.7434 87.1079 16.2762 87.1079 16.2762C86.9652 16.0472 86.5382 15.5379 86.3624 15.4278C85.6085 14.969 84.5025 15.1859 83.7394 15.6019C80.4643 17.4462 78.0633 21.0672 76.1656 23.9291L76.0921 24.04C76.0921 24.04 74.0825 27.2399 72.967 27.4778C72.0962 27.5458 72.186 26.416 72.2237 26.1528C72.5604 24.2505 73.3424 22.442 74.1302 20.8032C75.7327 19.7334 77.5613 18.3324 79.2232 16.7956C82.8299 13.4753 85.8704 9.71377 86.3149 8.87319C86.3149 8.87319 85.8338 8.9667 85.2658 8.98352C82.4911 12.7111 76.8131 18.1286 75.0917 18.9351C75.8542 17.1685 80.7813 8.73721 84.9739 4.70406L85.6337 4.09251C86.654 3.13301 87.711 2.1481 88.5348 1.98672C88.6218 1.97825 88.7338 1.98672 88.8305 2.18233C88.8673 2.92939 88.5785 3.48143 88.2472 4.10968L87.7829 5.02684C87.7829 5.02684 88.4406 4.90791 88.8726 4.7717C89.3736 3.8636 89.9287 2.84435 89.7241 1.63042C89.6559 1.23977 89.3622 0.942639 88.9785 0.87465C87.7277 0.645391 86.3647 1.53667 85.2678 2.25867L85.2236 2.28397C79.5854 6.53802 74.8245 12.6686 70.6619 21.0408C70.3603 21.2613 69.1947 21.5248 68.9967 21.3973C69.4077 20.5823 69.9253 19.4867 70.1842 18.298C70.229 17.9582 70.2707 17.6103 70.2707 17.2707C70.2707 16.5399 70.0885 15.8524 69.4088 15.3771C68.6118 14.995 67.6267 15.1734 66.9624 15.4618C63.9871 16.6506 61.7634 19.5887 60.1586 22.0084C59.2955 23.5456 58.435 25.1921 58.1967 27.0775C58.0289 28.5546 58.3705 29.5058 59.2427 29.9814C60.1395 30.4226 61.2683 29.964 61.7118 29.7434C64.7261 28.2149 66.8323 25.1499 68.4924 22.3477C68.5028 22.3464 68.5344 22.3446 68.5828 22.342L68.583 22.342C68.8406 22.3277 69.5737 22.2871 70.1506 22.144C70.1596 22.144 70.1634 22.144 70.1786 22.1528C70.1393 22.2797 69.785 23.299 69.785 23.299C68.7328 26.2705 68.2463 28.2916 69.2402 29.4887C70.6604 31.1785 73.0117 29.4296 74.9245 27.1196C74.5139 29.8875 76.0034 30.3208 77.1389 30.1088C78.4433 29.7693 79.8968 28.4274 80.5713 27.7398C80.3547 28.5463 80.4135 29.9901 81.6001 30.1342C82.2981 30.2585 82.8455 29.9622 83.4319 29.6447L83.4324 29.6444C83.529 29.5922 83.6266 29.5393 83.7262 29.4877C86.2523 28.163 89.2763 23.7487 90.0614 22.4724H89.032L88.91 22.6501C87.8129 24.2493 86.4311 26.2633 84.7091 27.2377ZM62.0343 26.9421C61.8741 26.7127 61.8209 26.4621 61.8156 26.1911C61.7849 24.526 63.645 21.5445 64.9578 19.9202H64.9605C65.5106 21.0804 66.7565 21.8262 67.5086 22.1405C66.5746 24.1445 63.3709 28.4364 62.0343 26.9421ZM66.0722 19.3937C66.376 20.7947 67.947 21.3045 68.0359 21.2446C68.5399 20.3991 68.9283 19.4945 69.1915 18.5531L69.1989 18.4935L69.2024 18.4671C69.2356 18.2111 69.2717 17.9326 69.2717 17.6611C69.2717 17.2034 69.1722 16.7786 68.8049 16.5404C68.4091 16.4051 67.8697 16.4981 67.5115 16.7701C66.6771 17.2451 65.8147 18.1875 66.0722 19.3937ZM80.6368 26.4072C80.6355 26.4072 80.3387 26.6619 80.3387 26.6619L80.3107 26.686C79.8956 27.0438 79.4671 27.4131 78.9523 27.222C78.8069 27.1712 78.7046 26.9845 78.68 26.8397C78.6561 25.7988 79.141 24.8341 79.6132 23.8947L79.618 23.8851L79.7394 23.6388L79.8102 23.5249C81.1567 21.3592 82.7254 18.836 85.0108 17.0756C85.4027 16.8033 85.8279 16.5745 86.2768 16.7529C86.38 16.8462 86.5003 17.0076 86.5003 17.1687C86.5003 17.2199 86.453 17.3557 86.4259 17.398C85.8513 18.2923 85.301 19.2258 84.7652 20.1347L84.7651 20.135L84.5563 20.4889C83.3808 22.5013 82.1613 24.5813 80.6368 26.4072Z" fill="#C4C4C4"/>
</svg>
