<svg width="133" height="27" viewBox="0 0 133 27" fill="none" xmlns="http://www.w3.org/2000/svg">
<path fill-rule="evenodd" clip-rule="evenodd" d="M68.2762 12.81C67.1815 12.81 66.3925 13.1694 65.5924 13.5355V21.8202C66.3587 21.8933 66.7981 21.8933 67.5251 21.8933C70.1525 21.8933 70.5126 20.6887 70.5126 19.0067V15.0498C70.5126 13.8077 70.1009 12.81 68.2762 12.81ZM50.8273 12.3579C49.0043 12.3579 48.5883 13.3599 48.5883 14.6008V15.298H53.0637V14.6008C53.0637 13.3599 52.6477 12.3579 50.8273 12.3579ZM17.0253 20.9811C17.0253 21.9628 17.4879 22.4726 18.5089 22.4726C19.6041 22.4726 20.2527 22.1151 21.0522 21.7478V19.7825H18.6574C17.5235 19.7825 17.0253 19.9939 17.0253 20.9811ZM85.2495 12.81C83.4235 12.81 82.7909 13.8077 82.7909 15.0498V19.5829C82.7909 20.8281 83.4235 21.8288 85.2495 21.8288C87.0706 21.8288 87.7082 20.8281 87.7082 19.5829V15.0498C87.7075 13.8077 87.07 12.81 85.2495 12.81ZM8.07686 26.0639H2.70929V13.0564H0.0273438V8.57432H2.7099V5.88238C2.7099 2.22534 4.2236 0.0512695 8.526 0.0512695H12.1081V4.53456H9.86912C8.19406 4.53456 8.08361 5.16117 8.08361 6.33021L8.07686 8.5737H12.1326L11.6583 13.0558H8.07686V26.0639ZM26.421 26.0977H21.9474L21.7541 24.9649C19.7115 26.0977 17.8886 26.2814 16.686 26.2814C13.4052 26.2814 11.6589 24.0871 11.6589 21.0523C11.6589 17.4721 13.6966 16.1943 17.3419 16.1943H21.0522V15.4203C21.0522 13.5927 20.843 13.0564 18.0358 13.0564H13.4463L13.8948 8.57432H18.9114C25.0705 8.57432 26.421 10.5223 26.421 15.4565V26.0977ZM41.6334 13.385C38.8496 12.9071 38.0501 12.8021 36.7107 12.8021C34.3048 12.8021 33.5778 13.3334 33.5778 15.3791V19.2487C33.5778 21.2944 34.3048 21.8282 36.7107 21.8282C38.0501 21.8282 38.8496 21.7213 41.6334 21.2416V25.6137C39.1951 26.161 37.6065 26.3048 36.264 26.3048C30.5013 26.3048 28.2108 23.2706 28.2108 18.8875V15.7477C28.2108 11.3609 30.5013 8.32122 36.264 8.32122C37.6065 8.32122 39.1951 8.46558 41.6334 9.0154V13.385ZM58.4307 18.8875H48.5877V19.2487C48.5877 21.2944 49.3154 21.8282 51.7206 21.8282C53.8829 21.8282 55.2027 21.7213 57.9816 21.2416V25.6137C55.3015 26.161 53.905 26.3048 51.2758 26.3048C45.5124 26.3048 43.2207 23.2706 43.2207 18.8875V15.2974C43.2207 11.4622 44.921 8.32122 50.8266 8.32122C56.7323 8.32122 58.4307 11.426 58.4307 15.2974V18.8875ZM75.879 18.9704C75.879 23.2068 74.6696 26.2968 67.3435 26.2968C64.6978 26.2968 63.146 26.064 60.226 25.6143V1.39785L65.5918 0.501565V8.9724C66.7514 8.54114 68.2522 8.32183 69.618 8.32183C74.9844 8.32183 75.8784 10.7306 75.8784 14.6014V18.9704H75.879ZM93.0794 19.0626C93.0794 22.7171 91.5725 26.2618 85.2673 26.2618C78.9592 26.2618 77.424 22.7171 77.424 19.0626V15.5339C77.424 11.8775 78.9592 8.33228 85.2673 8.33228C91.5725 8.33228 93.0794 11.8775 93.0794 15.5339V19.0626ZM110.268 19.0626C110.268 22.7171 108.759 26.2618 102.455 26.2618C96.1473 26.2618 94.6121 22.7171 94.6121 19.0626V15.5339C94.6121 11.8775 96.1473 8.33228 102.455 8.33228C108.759 8.33228 110.268 11.8775 110.268 15.5339V19.0626ZM127.908 26.0639H122.092L117.173 17.8425V26.0639H111.805V1.39724L117.173 0.50095V16.3805L122.092 8.57432H127.908L122.538 17.0931L127.908 26.0639ZM102.437 12.81C100.614 12.81 99.9815 13.8077 99.9815 15.0498V19.5829C99.9815 20.8281 100.614 21.8288 102.437 21.8288C104.258 21.8288 104.902 20.8281 104.902 19.5829V15.0498C104.902 13.8077 104.258 12.81 102.437 12.81ZM130.971 22.996C131.875 22.996 132.595 23.7338 132.595 24.6553C132.595 25.5909 131.875 26.3207 130.965 26.3207C130.059 26.3207 129.325 25.5909 129.325 24.6553C129.325 23.7338 130.059 22.996 130.965 22.996H130.971ZM130.965 23.2541C130.236 23.2541 129.641 23.8813 129.641 24.6553C129.641 25.4435 130.237 26.0627 130.971 26.0627C131.707 26.0701 132.294 25.4435 132.294 24.6627C132.294 23.8819 131.707 23.2541 130.971 23.2541H130.965ZM130.656 25.621H130.362V23.7695C130.516 23.748 130.663 23.7265 130.884 23.7265C131.164 23.7265 131.347 23.7854 131.459 23.8659C131.568 23.9476 131.626 24.0723 131.626 24.2486C131.626 24.4931 131.465 24.64 131.267 24.6996V24.7137C131.429 24.7438 131.538 24.89 131.576 25.1621C131.619 25.4502 131.664 25.5602 131.692 25.6204H131.384C131.34 25.5602 131.295 25.3913 131.259 25.1474C131.216 24.9121 131.097 24.8236 130.861 24.8236H130.657V25.621H130.656ZM130.656 24.5963H130.87C131.111 24.5963 131.317 24.5073 131.317 24.2781C131.317 24.1159 131.2 23.9544 130.87 23.9544C130.773 23.9544 130.706 23.9618 130.656 23.9685V24.5963Z" fill="#C4C4C4"/>
</svg>
