<svg width="21" height="21" viewBox="0 0 21 21" fill="none" xmlns="http://www.w3.org/2000/svg">
<path fill-rule="evenodd" clip-rule="evenodd" d="M15 8H18.5C19.9 8 21 9.1 21 10.55V10.6L20 18.55C20 19.9 18.85 21 17.5 21H10.5C9.15 21 7.75 20.65 6.55 20.05L5 19.3V12.6343C5 10.9968 5.57411 9.41106 6.62245 8.15306L7.14577 7.52508C8.34387 6.08736 9 4.27509 9 2.4036V1.5C9 0.65 9.7 0 10.5 0C10.75 0 11 0.1 11.25 0.2C12.95 1.2 14 3.75 14 5.5V7C14 7.55228 14.4477 8 15 8ZM0.5 9H3.5C3.8 9 4 9.2 4 9.5V20.5C4 20.8 3.8 21 3.5 21H0.5C0.2 21 0 20.8 0 20.5V9.5C0 9.2 0.2 9 0.5 9Z" fill="#009CA6"/>
</svg>
