<svg width="32" height="32" viewBox="0 0 32 32" fill="none" xmlns="http://www.w3.org/2000/svg">
<path fill-rule="evenodd" clip-rule="evenodd" d="M16 32C24.8366 32 32 24.8366 32 16C32 7.16344 24.8366 0 16 0C7.16344 0 0 7.16344 0 16C0 24.8366 7.16344 32 16 32Z" fill="#006272"/>
<path fill-rule="evenodd" clip-rule="evenodd" d="M18.7768 22.1913C18.919 22.2726 19.0815 22.3335 19.2643 22.3335C19.5284 22.3335 19.8127 22.2116 19.9752 21.9882C20.1377 21.7647 20.1987 21.4804 20.1377 21.2163L19.3049 17.6616C19.3049 17.621 19.3252 17.5804 19.3456 17.5601L22.0065 15.1632C22.2909 14.9194 22.3924 14.5335 22.2706 14.1882C22.1487 13.8429 21.844 13.5991 21.4784 13.5788L18.0456 13.3147C18.0049 13.3147 17.9846 13.2944 17.9643 13.2538L16.6846 9.92256C16.5424 9.55693 16.2174 9.3335 15.8315 9.3335C15.4456 9.3335 15.1206 9.55693 14.9581 9.92256L13.6784 13.2538C13.6581 13.2944 13.6377 13.3147 13.5971 13.3147L10.1643 13.5788C9.79868 13.5991 9.49399 13.8429 9.37212 14.1882C9.27056 14.5335 9.37212 14.9194 9.63618 15.1632L12.2971 17.5601C12.3377 17.5804 12.3377 17.621 12.3377 17.6616L11.5252 21.2163C11.444 21.4804 11.5049 21.7647 11.6877 21.9882C11.8502 22.2116 12.1143 22.3335 12.3987 22.3335C12.5815 22.3335 12.744 22.2726 12.9065 22.1913L15.7909 20.3022C15.8315 20.2819 15.8518 20.2819 15.8924 20.3022L18.7768 22.1913Z" fill="white"/>
</svg>
