<svg width="116" height="37" viewBox="0 0 116 37" fill="none" xmlns="http://www.w3.org/2000/svg">
<path d="M49.1319 0.793945H48.6V36.9582H49.1319V0.793945Z" fill="#006272"/>
<path d="M0 36.5441H17.6136L16.4019 34.8207L23.7163 23.5319V19.9649H27.7798V23.5987L35.1681 34.7539L34.0746 36.5441H44.9797L22.4898 3.38574L0 36.5441Z" fill="#006272"/>
<path d="M58.4706 6.93974L57.0373 3.29259H57.0077L55.5448 6.93974H58.4706ZM57.6727 2.35742L61.0565 10.1727H59.7857L58.84 7.82146H55.1902L54.215 10.1727H53.0328L56.4019 2.35742H57.6727Z" fill="#006272"/>
<path d="M62.9922 4.52129V5.34958H63.0218C63.4946 4.70832 64.1595 4.3877 65.0461 4.3877C65.4303 4.3877 65.785 4.45449 66.0953 4.60145C66.4056 4.7484 66.6272 4.98887 66.7602 5.34958C66.9671 5.04231 67.2478 4.80184 67.5877 4.64153C67.9276 4.46785 68.3118 4.3877 68.7255 4.3877C69.0358 4.3877 69.3313 4.41441 69.5825 4.48121C69.8337 4.54801 70.0554 4.64153 70.2327 4.77512C70.41 4.90872 70.5578 5.08239 70.6612 5.28278C70.7646 5.49653 70.809 5.73701 70.809 6.03092V10.1724H69.7746V6.45842C69.7746 6.28475 69.7598 6.12443 69.7303 5.96412C69.7007 5.81716 69.6416 5.68357 69.553 5.56333C69.4643 5.45646 69.3461 5.36294 69.1836 5.29614C69.021 5.22934 68.8289 5.20263 68.5777 5.20263C68.0753 5.20263 67.6764 5.33622 67.3808 5.59005C67.0853 5.85724 66.9523 6.20459 66.9523 6.64545V10.1724H65.918V6.45842C65.918 6.27139 65.9032 6.11107 65.8588 5.95076C65.8293 5.8038 65.7554 5.67021 65.6668 5.54997C65.5781 5.4431 65.4599 5.34958 65.3121 5.28278C65.1643 5.21598 64.9723 5.18927 64.7358 5.18927C64.4403 5.18927 64.1743 5.2427 63.9675 5.34958C63.7606 5.45646 63.5833 5.59005 63.4503 5.75036C63.3173 5.89732 63.2139 6.05763 63.1547 6.23131C63.0956 6.39162 63.0661 6.53858 63.0661 6.64545V10.1724H62.0317V4.50793H62.9922V4.52129Z" fill="#006272"/>
<path d="M76.823 6.17818C76.7343 5.97779 76.6014 5.81748 76.4536 5.67052C76.2911 5.52357 76.1137 5.41669 75.8921 5.33653C75.6852 5.25638 75.4488 5.2163 75.1828 5.2163C74.9168 5.2163 74.6804 5.25638 74.4588 5.33653C74.2519 5.41669 74.0598 5.53692 73.912 5.68388C73.7643 5.83083 73.6313 6.00451 73.5426 6.19154C73.454 6.37857 73.3949 6.59233 73.3801 6.80608H76.9708C76.9708 6.57897 76.9117 6.37858 76.823 6.17818ZM77.0594 9.81197C76.5866 10.1326 75.9955 10.2929 75.2862 10.2929C74.7838 10.2929 74.3553 10.2261 73.9859 10.0792C73.6165 9.93221 73.3062 9.73181 73.055 9.46462C72.8038 9.19743 72.6117 8.89016 72.4935 8.52946C72.3753 8.16875 72.3014 7.76796 72.2866 7.34046C72.2866 6.91296 72.3605 6.51217 72.5083 6.16482C72.656 5.80412 72.8629 5.49685 73.1141 5.22966C73.3801 4.96247 73.6904 4.76207 74.045 4.61512C74.3997 4.46816 74.7986 4.40137 75.2271 4.40137C75.7887 4.40137 76.2467 4.50824 76.6161 4.70864C76.9855 4.92239 77.2811 5.17622 77.5027 5.49685C77.7244 5.81748 77.8721 6.16482 77.9608 6.55225C78.0495 6.92631 78.079 7.28702 78.0642 7.63437H73.3801C73.3653 7.8882 73.4096 8.11531 73.4835 8.34242C73.5574 8.56954 73.6756 8.75657 73.8382 8.93024C74.0007 9.10392 74.2076 9.23751 74.4588 9.34439C74.71 9.45126 75.0055 9.49134 75.3454 9.49134C75.7739 9.49134 76.1433 9.39782 76.4093 9.22415C76.69 9.03712 76.8673 8.76993 76.956 8.39586H77.9756C77.8426 9.0104 77.5323 9.49134 77.0594 9.81197Z" fill="#006272"/>
<path d="M80.3397 4.52143V5.71043H80.3693C80.6205 5.2562 80.9308 4.90886 81.2854 4.6951C81.6549 4.48135 82.1129 4.37447 82.6597 4.38783V5.37644C82.2459 5.37644 81.8913 5.42988 81.6105 5.52339C81.315 5.63027 81.0933 5.77722 80.916 5.97762C80.7387 6.17801 80.6057 6.41848 80.5318 6.69903C80.458 6.97958 80.4136 7.30021 80.4136 7.67428V10.1725H79.3793V4.50807H80.3397V4.52143Z" fill="#006272"/>
<path d="M84.832 10.1727H83.7976V4.5083H84.832V10.1727ZM83.7976 2.35742H84.832V3.49298H83.7976V2.35742Z" fill="#006272"/>
<path d="M90.447 5.49685C90.1958 5.29645 89.8411 5.20294 89.4126 5.20294C89.0432 5.20294 88.7329 5.26973 88.4817 5.38997C88.2305 5.51021 88.0384 5.68388 87.8759 5.88427C87.7281 6.08466 87.6247 6.32514 87.5508 6.59233C87.4917 6.85952 87.4473 7.14007 87.4473 7.42062C87.4473 7.68781 87.4769 7.94164 87.5508 8.18211C87.6247 8.43594 87.7281 8.64969 87.8759 8.85009C88.0236 9.05048 88.2157 9.19743 88.4522 9.31767C88.6886 9.4379 88.9693 9.49134 89.2944 9.49134C89.7968 9.49134 90.1958 9.37111 90.4913 9.13063C90.7721 8.89016 90.9494 8.55618 91.0233 8.11531H92.0724C91.9542 8.81001 91.6734 9.35775 91.2006 9.73181C90.7425 10.1059 90.1071 10.3063 89.3092 10.3063C88.8363 10.3063 88.4078 10.2395 88.0384 10.0925C87.669 9.95892 87.3587 9.75853 87.1223 9.5047C86.8711 9.25087 86.6937 8.9436 86.5608 8.59625C86.4425 8.24891 86.3687 7.84812 86.3687 7.43398C86.3687 7.00647 86.4278 6.61905 86.546 6.24498C86.6642 5.87091 86.8563 5.55028 87.0927 5.28309C87.3291 5.0159 87.6542 4.78879 88.0236 4.64184C88.393 4.48152 88.8216 4.40137 89.324 4.40137C89.6786 4.40137 90.0185 4.44144 90.3288 4.5216C90.6391 4.60176 90.9198 4.72199 91.1563 4.88231C91.3927 5.04262 91.5848 5.24302 91.7473 5.48349C91.8951 5.72396 91.9985 6.01787 92.0428 6.35186H90.9789C90.8755 5.97779 90.6982 5.69724 90.447 5.49685Z" fill="#006272"/>
<path d="M97.3477 7.24694C97.2147 7.34046 97.0521 7.3939 96.8452 7.43398C96.6384 7.47405 96.4167 7.50077 96.1803 7.52749C95.9439 7.55421 95.7222 7.58093 95.4858 7.62101C95.2494 7.64773 95.0425 7.70117 94.8504 7.78132C94.6583 7.84812 94.5106 7.955 94.3924 8.08859C94.2741 8.22219 94.215 8.40922 94.215 8.63633C94.215 8.78329 94.2446 8.91688 94.3185 9.02376C94.3924 9.13063 94.481 9.21079 94.5844 9.27759C94.6879 9.34439 94.8209 9.38446 94.9686 9.42454C95.1164 9.45126 95.2642 9.46462 95.4267 9.46462C95.7666 9.46462 96.0621 9.42454 96.2985 9.34439C96.5349 9.26423 96.7418 9.15735 96.8896 9.02376C97.0373 8.89016 97.1555 8.75657 97.2294 8.60961C97.3033 8.46266 97.3329 8.3157 97.3329 8.19547V7.24694H97.3477ZM99.0322 10.146C98.8548 10.2395 98.6036 10.2929 98.2933 10.2929C98.0274 10.2929 97.8205 10.2261 97.658 10.0925C97.4954 9.95892 97.4215 9.73181 97.4215 9.42454C97.1408 9.73181 96.8157 9.94556 96.4315 10.0925C96.0473 10.2395 95.6484 10.2929 95.2198 10.2929C94.9391 10.2929 94.6731 10.2662 94.4071 10.1994C94.1559 10.146 93.9343 10.0524 93.7422 9.93221C93.5501 9.81197 93.4023 9.65166 93.2989 9.45126C93.1955 9.25087 93.1364 9.0104 93.1364 8.72985C93.1364 8.40922 93.1955 8.14203 93.3137 7.94164C93.4319 7.74125 93.5944 7.56757 93.7865 7.44734C93.9786 7.31374 94.215 7.22022 94.4662 7.15343C94.7174 7.08663 94.9834 7.03319 95.2494 6.99311C95.5301 6.93967 95.7961 6.8996 96.0473 6.87288C96.2985 6.84616 96.5202 6.80608 96.7123 6.766C96.9043 6.71256 97.0521 6.64576 97.1703 6.55225C97.2885 6.45873 97.3329 6.32514 97.3329 6.15146C97.3329 5.95107 97.2885 5.7774 97.1999 5.65716C97.1112 5.53693 97.0078 5.44341 96.8748 5.37661C96.7418 5.30981 96.594 5.26974 96.4315 5.24302C96.269 5.2163 96.1064 5.2163 95.9439 5.2163C95.5154 5.2163 95.146 5.29646 94.8504 5.44341C94.5549 5.59036 94.4071 5.87091 94.3776 6.28506H93.3432C93.358 5.93771 93.4467 5.6438 93.5796 5.40333C93.7274 5.16286 93.9195 4.96247 94.1559 4.81551C94.3923 4.66856 94.6731 4.56168 94.9834 4.49488C95.2937 4.42809 95.6336 4.40137 95.9882 4.40137C96.269 4.40137 96.5497 4.41473 96.8305 4.4548C97.1112 4.49488 97.3624 4.56168 97.5841 4.68192C97.8057 4.78879 97.9978 4.94911 98.1308 5.16286C98.2638 5.36325 98.3377 5.63044 98.3377 5.96443V8.83673C98.3377 9.05048 98.3525 9.21079 98.382 9.31767C98.4116 9.42454 98.5002 9.46462 98.6628 9.46462C98.7514 9.46462 98.8549 9.45126 98.9731 9.42454V10.146H99.0322Z" fill="#006272"/>
<path d="M101.234 4.52129V5.41638H101.263C101.692 4.73504 102.372 4.3877 103.302 4.3877C103.716 4.3877 104.056 4.44113 104.337 4.53465C104.618 4.64153 104.839 4.77512 105.002 4.96215C105.164 5.14919 105.297 5.36294 105.356 5.61677C105.43 5.8706 105.46 6.15115 105.46 6.45842V10.1724H104.426V6.33819C104.426 5.99084 104.307 5.71029 104.086 5.5099C103.864 5.3095 103.554 5.20263 103.155 5.20263C102.844 5.20263 102.564 5.24271 102.342 5.33622C102.106 5.42974 101.914 5.54997 101.766 5.71029C101.618 5.8706 101.5 6.05764 101.426 6.27139C101.352 6.48514 101.308 6.72561 101.308 6.97944V10.1724H100.273V4.50793H101.234V4.52129Z" fill="#006272"/>
<path d="M57.4511 19.2306C58.1013 19.2439 58.5889 19.1237 58.8844 18.8699C59.1799 18.616 59.3425 18.2687 59.3425 17.8011C59.3425 17.3335 59.1947 16.9728 58.8844 16.7324C58.5889 16.4919 58.1013 16.3716 57.4511 16.3716H55.2051V19.2439H57.4511V19.2306ZM57.8353 15.4899C58.7071 15.4899 59.372 15.6903 59.8153 16.0911C60.2586 16.4919 60.4803 17.0663 60.4803 17.7878C60.4803 18.5225 60.2586 19.0836 59.8153 19.4978C59.372 19.9119 58.7071 20.1123 57.8353 20.099H55.1903V23.2919H54.0377V15.4766H57.8353V15.4899Z" fill="#006272"/>
<path d="M62.9479 17.6533V18.8423H62.9775C63.2287 18.388 63.539 18.0407 63.8936 17.8269C64.263 17.6132 64.7211 17.5063 65.2678 17.5197V18.5083C64.8541 18.5083 64.4994 18.5617 64.2187 18.6552C63.9232 18.7621 63.7015 18.9091 63.5242 19.1095C63.3469 19.3098 63.2139 19.5503 63.14 19.8309C63.0661 20.1114 63.0218 20.432 63.0218 20.8061V23.3177H61.9874V17.6533H62.9479Z" fill="#006272"/>
<path d="M67.2479 21.3941C67.3514 21.6613 67.4844 21.8884 67.6617 22.0621C67.839 22.2358 68.0459 22.3827 68.2823 22.4762C68.5187 22.5697 68.7699 22.6232 69.0359 22.6232C69.3019 22.6232 69.5531 22.5697 69.7895 22.4762C70.0259 22.3827 70.2328 22.2491 70.4101 22.0621C70.5874 21.8884 70.7204 21.6613 70.8239 21.3941C70.9273 21.1269 70.9716 20.8196 70.9716 20.4857C70.9716 20.1383 70.9273 19.8444 70.8239 19.5772C70.7204 19.31 70.5874 19.0829 70.4101 18.9092C70.2328 18.7222 70.0259 18.5886 69.7895 18.4951C69.5531 18.4016 69.3019 18.3481 69.0359 18.3481C68.7699 18.3481 68.5187 18.4016 68.2823 18.4951C68.0459 18.5886 67.839 18.7356 67.6617 18.9092C67.4844 19.0963 67.3514 19.31 67.2479 19.5772C67.1445 19.8444 67.1002 20.1517 67.1002 20.4857C67.0854 20.833 67.1445 21.1269 67.2479 21.3941ZM66.1988 19.3234C66.3318 18.9627 66.5239 18.642 66.7751 18.3882C67.0263 18.121 67.3514 17.9073 67.7356 17.7603C68.1198 17.6134 68.5483 17.5332 69.0507 17.5332C69.5531 17.5332 69.9816 17.6134 70.3658 17.7603C70.7352 17.9073 71.0603 18.121 71.3115 18.3882C71.5627 18.6554 71.7696 18.9627 71.8878 19.3234C72.0208 19.6841 72.0799 20.0715 72.0799 20.4857C72.0799 20.8998 72.0208 21.2872 71.8878 21.6479C71.7548 22.0086 71.5627 22.3159 71.3115 22.5831C71.0603 22.8503 70.7352 23.064 70.3658 23.211C69.9964 23.358 69.5531 23.4381 69.0507 23.4381C68.5631 23.4381 68.1198 23.358 67.7356 23.211C67.3514 23.064 67.0411 22.8503 66.7751 22.5831C66.5239 22.3159 66.317 22.0086 66.1988 21.6479C66.0658 21.2872 66.0067 20.8998 66.0067 20.4857C66.0067 20.0715 66.0658 19.6841 66.1988 19.3234Z" fill="#006272"/>
<path d="M77.2221 17.6536H78.2564V23.318H77.2221V17.6536ZM77.2221 15.4893H78.2564V16.6249H77.2221V15.4893ZM72.9517 18.4685V17.6536H74.0008V16.8119C74.0008 16.3577 74.1486 15.997 74.4441 15.7699C74.7396 15.5294 75.1681 15.4092 75.7296 15.4092C75.8331 15.4092 75.9365 15.4225 76.0695 15.4359C76.1877 15.4493 76.3059 15.476 76.4094 15.5027V16.3176C76.3207 16.2909 76.2173 16.2642 76.1138 16.2642C76.0104 16.2508 75.907 16.2508 75.8183 16.2508C75.5671 16.2508 75.375 16.2909 75.242 16.3844C75.109 16.4779 75.0352 16.6383 75.0352 16.8921V17.6803H76.2468V18.4952H75.0352V23.3314H74.0008V18.4952H72.9517V18.4685Z" fill="#006272"/>
<path d="M83.8863 18.6287C83.6351 18.4283 83.2805 18.3348 82.8519 18.3348C82.4825 18.3348 82.1722 18.4016 81.921 18.5218C81.6698 18.642 81.4777 18.8157 81.3152 19.0161C81.1674 19.2165 81.064 19.457 80.9901 19.7242C80.931 19.9914 80.8867 20.2719 80.8867 20.5525C80.8867 20.8196 80.9162 21.0735 80.9901 21.3139C81.064 21.5678 81.1674 21.7815 81.3152 21.9819C81.463 22.1823 81.655 22.3293 81.8915 22.4495C82.1279 22.5697 82.4086 22.6232 82.7337 22.6232C83.2361 22.6232 83.6351 22.5029 83.9306 22.2625C84.2114 22.022 84.3887 21.688 84.4626 21.2471H85.5117C85.3935 21.9418 85.1127 22.4896 84.6399 22.8636C84.1818 23.2377 83.5464 23.4381 82.7485 23.4381C82.2757 23.4381 81.8471 23.3713 81.4777 23.2244C81.1083 23.0908 80.798 22.8904 80.5616 22.6365C80.3104 22.3827 80.1331 22.0754 80.0001 21.7281C79.8819 21.3807 79.808 20.98 79.808 20.5658C79.808 20.1517 79.8671 19.7509 79.9853 19.3768C80.1035 19.0027 80.2956 18.6821 80.532 18.4149C80.7832 18.1477 81.0935 17.9206 81.463 17.7737C81.8324 17.6134 82.2609 17.5332 82.7633 17.5332C83.1179 17.5332 83.4578 17.5733 83.7681 17.6534C84.0784 17.7336 84.3591 17.8538 84.5956 18.0141C84.832 18.1745 85.0241 18.3749 85.1866 18.6153C85.3344 18.8558 85.4378 19.1497 85.4821 19.4837H84.4182C84.3148 19.1096 84.1375 18.8291 83.8863 18.6287Z" fill="#006272"/>
<path d="M88.0089 23.3046H86.9745V17.6535H88.0089V23.3046ZM86.9745 15.4893H88.0089V16.6248H86.9745V15.4893Z" fill="#006272"/>
<path d="M94.0673 19.311C93.9786 19.1106 93.8456 18.9503 93.6978 18.8033C93.5501 18.6564 93.358 18.5495 93.1363 18.4693C92.9295 18.3892 92.693 18.3491 92.4271 18.3491C92.1611 18.3491 91.9247 18.3892 91.703 18.4693C91.4962 18.5495 91.3041 18.6697 91.1563 18.8167C91.0085 18.9636 90.8755 19.1373 90.7869 19.3244C90.6982 19.5114 90.6391 19.7251 90.6243 19.9389H94.215C94.215 19.7118 94.1559 19.5114 94.0673 19.311ZM94.3185 22.9448C93.8456 23.2654 93.2546 23.4257 92.5453 23.4257C92.0429 23.4257 91.6144 23.3589 91.2449 23.212C90.8755 23.065 90.5652 22.8646 90.314 22.5974C90.0628 22.3302 89.8707 22.023 89.7525 21.6623C89.6343 21.3016 89.5604 20.9008 89.5457 20.4733C89.5457 20.0458 89.6195 19.645 89.7673 19.2976C89.9151 18.9369 90.1219 18.6297 90.3731 18.3625C90.6391 18.0953 90.9494 17.8949 91.3041 17.7479C91.6587 17.601 92.0577 17.5342 92.4862 17.5342C93.0477 17.5342 93.5058 17.6411 93.8752 17.8414C94.2446 18.0552 94.5401 18.309 94.7618 18.6297C94.9834 18.9503 95.1312 19.2976 95.2198 19.6851C95.3085 20.0591 95.338 20.4198 95.3233 20.7672H90.6391C90.6243 21.021 90.6687 21.2481 90.7426 21.4752C90.8164 21.7023 90.9346 21.8894 91.0972 22.0631C91.2597 22.2367 91.4666 22.3703 91.7178 22.4772C91.969 22.5841 92.2645 22.6242 92.6044 22.6242C93.0329 22.6242 93.4023 22.5306 93.6683 22.357C93.949 22.1699 94.1264 21.9027 94.215 21.5287H95.2346C95.0868 22.1432 94.7765 22.6242 94.3185 22.9448Z" fill="#006272"/>
<path d="M97.6284 17.6541V18.5492H97.658C98.0865 17.8679 98.7662 17.5205 99.6971 17.5205C100.111 17.5205 100.451 17.5739 100.732 17.6675C101.012 17.7743 101.234 17.9079 101.396 18.095C101.559 18.282 101.692 18.4958 101.751 18.7496C101.825 19.0034 101.855 19.284 101.855 19.5912V23.3185H100.82V19.4844C100.82 19.137 100.702 18.8565 100.48 18.6561C100.259 18.4557 99.9484 18.3488 99.5494 18.3488C99.2391 18.3488 98.9583 18.3889 98.7367 18.4824C98.5003 18.5759 98.3082 18.6961 98.1604 18.8565C98.0126 19.0168 97.8944 19.2038 97.8205 19.4176C97.7467 19.6313 97.7023 19.8718 97.7023 20.1256V23.3185H96.668V17.6541H97.6284Z" fill="#006272"/>
<path d="M107.425 18.6297C107.174 18.4293 106.819 18.3358 106.391 18.3358C106.021 18.3358 105.711 18.4025 105.46 18.5228C105.209 18.643 105.017 18.8167 104.854 19.0171C104.706 19.2175 104.603 19.4579 104.529 19.7251C104.47 19.9923 104.426 20.2729 104.426 20.5534C104.426 20.8206 104.455 21.0744 104.529 21.3149C104.603 21.5688 104.706 21.7825 104.854 21.9829C105.002 22.1833 105.194 22.3302 105.43 22.4505C105.667 22.5707 105.948 22.6242 106.273 22.6242C106.775 22.6242 107.174 22.5039 107.47 22.2634C107.75 22.023 107.928 21.689 108.002 21.2481H109.051C108.932 21.9428 108.652 22.4906 108.179 22.8646C107.721 23.2387 107.085 23.4391 106.287 23.4391C105.815 23.4391 105.386 23.3723 105.017 23.2253C104.647 23.0917 104.337 22.8913 104.101 22.6375C103.849 22.3837 103.672 22.0764 103.539 21.7291C103.421 21.3817 103.347 20.9809 103.347 20.5668C103.347 20.1526 103.406 19.7519 103.524 19.3778C103.642 19.0037 103.835 18.6831 104.071 18.4159C104.322 18.1487 104.632 17.9216 105.002 17.7746C105.371 17.6143 105.8 17.5342 106.302 17.5342C106.657 17.5342 106.997 17.5743 107.307 17.6544C107.617 17.7346 107.898 17.8548 108.135 18.0151C108.371 18.1754 108.563 18.3758 108.726 18.6163C108.873 18.8568 108.977 19.1507 109.021 19.4847H107.957C107.854 19.1106 107.691 18.8301 107.425 18.6297Z" fill="#006272"/>
<path d="M112.922 24.0669C112.804 24.3474 112.686 24.5745 112.567 24.7616C112.449 24.9486 112.316 25.1089 112.183 25.2291C112.035 25.3494 111.888 25.4429 111.71 25.4963C111.533 25.5498 111.341 25.5765 111.105 25.5765C110.986 25.5765 110.868 25.5631 110.735 25.5498C110.617 25.5364 110.499 25.5097 110.38 25.4696V24.6146C110.469 24.6547 110.573 24.6814 110.691 24.7081C110.809 24.7348 110.912 24.7482 110.986 24.7482C111.193 24.7482 111.371 24.7081 111.518 24.6146C111.666 24.5211 111.769 24.3875 111.843 24.2272L112.272 23.2787L109.789 17.6543H110.957L112.789 22.29H112.819L114.577 17.6543H115.67L112.922 24.0669Z" fill="#006272"/>
<path d="M55.2494 28.6221H54.0968V36.4374H55.2494V28.6221Z" fill="#006272"/>
<path d="M58.2786 30.7859V31.681H58.3081C58.7367 30.9997 59.4164 30.6523 60.3473 30.6523C60.761 30.6523 61.1009 30.7058 61.3817 30.7993C61.6624 30.9062 61.8841 31.0398 62.0466 31.2268C62.2091 31.4138 62.3421 31.6276 62.4012 31.8814C62.4751 32.1353 62.5047 32.4158 62.5047 32.7231V36.4504H61.4703V32.6162C61.4703 32.2688 61.3521 31.9883 61.1304 31.7879C60.9088 31.5875 60.5985 31.4806 60.1995 31.4806C59.8892 31.4806 59.6085 31.5207 59.3868 31.6142C59.1504 31.7077 58.9583 31.828 58.8105 31.9883C58.6628 32.1486 58.5446 32.3356 58.4707 32.5494C58.3968 32.7631 58.3525 33.0036 58.3525 33.2575V36.4504H57.3181V30.7859H58.2786Z" fill="#006272"/>
<path d="M65.1201 35.1812C65.2236 35.3282 65.3418 35.4351 65.5043 35.5152C65.6669 35.5954 65.8442 35.6622 66.0363 35.7022C66.2284 35.7423 66.4352 35.7557 66.6421 35.7557C66.8046 35.7557 66.9672 35.7423 67.1445 35.729C67.3218 35.7022 67.4844 35.6622 67.6321 35.6087C67.7799 35.5553 67.8981 35.4618 68.0015 35.3549C68.105 35.248 68.1493 35.1011 68.1493 34.9274C68.1493 34.6869 68.0459 34.4999 67.8538 34.3797C67.6469 34.2594 67.3957 34.1525 67.1002 34.0724C66.8046 33.9922 66.4648 33.9254 66.1102 33.8586C65.7555 33.7918 65.4304 33.7117 65.1201 33.5914C64.8246 33.4846 64.5586 33.3243 64.3665 33.1105C64.1597 32.9101 64.071 32.6162 64.071 32.2555C64.071 31.9749 64.1449 31.7211 64.2779 31.5207C64.4256 31.3203 64.6029 31.1466 64.8246 31.0264C65.0462 30.8928 65.2974 30.7993 65.5782 30.7459C65.859 30.6791 66.1397 30.6523 66.4057 30.6523C66.7603 30.6523 67.0854 30.6791 67.3809 30.7325C67.6765 30.7859 67.9424 30.8795 68.1789 31.0131C68.4153 31.1466 68.5926 31.3337 68.7256 31.5608C68.8586 31.7879 68.9472 32.0818 68.962 32.4158H67.9277C67.9129 32.2288 67.8538 32.0818 67.7651 31.9616C67.6765 31.8413 67.5583 31.7478 67.4253 31.6677C67.2923 31.6009 67.1297 31.5474 66.9672 31.5074C66.8046 31.4806 66.6273 31.4539 66.4648 31.4539C66.317 31.4539 66.1545 31.4673 65.9919 31.4806C65.8294 31.5074 65.6964 31.5341 65.5634 31.6009C65.4304 31.6677 65.327 31.7345 65.2531 31.8146C65.1792 31.9081 65.1349 32.0284 65.1349 32.1753C65.1349 32.3356 65.194 32.4692 65.327 32.5761C65.4452 32.683 65.6078 32.7632 65.7998 32.8433C65.9919 32.9101 66.2136 32.9769 66.45 33.017C66.6864 33.0704 66.9376 33.1105 67.1741 33.1639C67.4253 33.2174 67.6912 33.2708 67.9277 33.351C68.1789 33.4178 68.3857 33.5246 68.5778 33.6449C68.7699 33.7651 68.9177 33.9121 69.0359 34.0991C69.1541 34.2861 69.2132 34.5132 69.2132 34.7804C69.2132 35.1278 69.1393 35.4083 68.9768 35.6354C68.8143 35.8626 68.6074 36.0496 68.3562 36.1832C68.105 36.3168 67.8095 36.4237 67.4991 36.4771C67.1741 36.5305 66.8638 36.5573 66.5534 36.5573C66.1988 36.5573 65.8737 36.5305 65.5634 36.4637C65.2531 36.3969 64.9724 36.2901 64.7212 36.1431C64.4847 35.9962 64.2779 35.7958 64.1449 35.5553C63.9971 35.3148 63.9232 35.0075 63.9084 34.6602H64.9428C64.9724 34.8606 65.0167 35.0343 65.1201 35.1812Z" fill="#006272"/>
<path d="M73.3506 30.7859V31.6008H72.1094V35.1144C72.1094 35.2212 72.1241 35.3148 72.1389 35.3816C72.1537 35.4483 72.198 35.5018 72.2571 35.5285C72.3162 35.5686 72.3901 35.5819 72.4936 35.5953C72.597 35.6087 72.73 35.6087 72.8925 35.6087H73.3654V36.4236H72.5822C72.3162 36.4236 72.0946 36.4102 71.9025 36.3702C71.7104 36.3434 71.5626 36.2766 71.4444 36.1965C71.3262 36.103 71.2376 35.9827 71.1784 35.8224C71.1193 35.6621 71.0898 35.4483 71.0898 35.1812V31.5741H70.0259V30.7592H71.0898V29.0625H72.1241V30.7592H73.3506V30.7859Z" fill="#006272"/>
<path d="M75.8626 36.4374H74.8282V30.773H75.8626V36.4374ZM74.843 28.6221H75.8774V29.7576H74.843V28.6221Z" fill="#006272"/>
<path d="M80.4137 30.7859V31.6008H79.1725V35.1144C79.1725 35.2212 79.1873 35.3148 79.202 35.3816C79.2168 35.4484 79.2611 35.5018 79.3202 35.5285C79.3794 35.5686 79.4532 35.5819 79.5567 35.5953C79.6601 35.6087 79.7931 35.6087 79.9556 35.6087H80.4285V36.4236H79.6305C79.3646 36.4236 79.1429 36.4102 78.9508 36.3702C78.7587 36.3434 78.611 36.2766 78.4928 36.1965C78.3745 36.103 78.2859 35.9827 78.2268 35.8224C78.1677 35.6621 78.1381 35.4484 78.1381 35.1812V31.5741H77.0742V30.7592H78.1381V29.0625H79.1725V30.7592H80.4137V30.7859Z" fill="#006272"/>
<path d="M86.0584 36.4366V35.5415H86.0288C85.8072 35.8888 85.5264 36.1427 85.1865 36.3163C84.8467 36.4767 84.4477 36.5568 83.9896 36.5568C83.5759 36.5568 83.236 36.5034 82.9553 36.4099C82.6745 36.3163 82.4529 36.1694 82.2903 35.9824C82.1278 35.7953 81.9948 35.5816 81.9357 35.3277C81.8618 35.0739 81.8323 34.7934 81.8323 34.4861V30.7588H82.8666V34.6197C82.8666 34.967 82.9848 35.2476 83.2065 35.448C83.4281 35.6484 83.7384 35.7552 84.1374 35.7552C84.4477 35.7552 84.7285 35.7152 84.9501 35.6217C85.1865 35.5281 85.3786 35.4079 85.5264 35.2476C85.6742 35.0873 85.7924 34.9002 85.8663 34.6865C85.9401 34.4727 85.9845 34.2323 85.9845 33.9784V30.7855H87.0188V36.4499H86.0584V36.4366Z" fill="#006272"/>
<path d="M91.5404 30.7859V31.6008H90.2992V35.1144C90.2992 35.2212 90.314 35.3148 90.3288 35.3816C90.3435 35.4483 90.3879 35.5018 90.447 35.5285C90.5061 35.5686 90.58 35.5819 90.6834 35.5953C90.7868 35.6087 90.9198 35.6087 91.0824 35.6087H91.5552V36.4236H90.7721C90.5061 36.4236 90.2844 36.4102 90.0923 36.3702C89.9002 36.3434 89.7525 36.2766 89.6343 36.1965C89.516 36.103 89.4274 35.9827 89.3683 35.8224C89.3092 35.6621 89.2796 35.4483 89.2796 35.1812V31.5741H88.2009V30.7592H89.2648V29.0625H90.2992V30.7592H91.5404V30.7859Z" fill="#006272"/>
<path d="M97.1555 32.4428C97.0669 32.2424 96.9339 32.0821 96.7861 31.9352C96.6383 31.7882 96.4462 31.6813 96.2246 31.6012C96.0177 31.521 95.7813 31.4809 95.5153 31.4809C95.2494 31.4809 95.0129 31.521 94.7913 31.6012C94.5844 31.6813 94.3923 31.8016 94.2446 31.9485C94.0968 32.0955 93.9638 32.2692 93.8751 32.4562C93.7865 32.6432 93.7274 32.857 93.7126 33.0707H97.3033C97.3033 32.857 97.2442 32.6432 97.1555 32.4428ZM97.4067 36.0766C96.9339 36.3972 96.3428 36.5576 95.6335 36.5576C95.1311 36.5576 94.7026 36.4908 94.3332 36.3438C93.9638 36.1969 93.6535 35.9965 93.4023 35.7293C93.1511 35.4621 92.959 35.1548 92.8408 34.7941C92.7226 34.4334 92.6487 34.0326 92.6339 33.6051C92.6339 33.1776 92.7078 32.7768 92.8556 32.4295C93.0033 32.0688 93.2102 31.7615 93.4614 31.4943C93.7274 31.2271 94.0377 31.0267 94.3923 30.8798C94.747 30.7328 95.1459 30.666 95.5744 30.666C96.1359 30.666 96.594 30.7729 96.9634 30.9733C97.3328 31.187 97.6284 31.4409 97.85 31.7615C98.0717 32.0821 98.2194 32.4295 98.3081 32.8169C98.3967 33.191 98.4263 33.5517 98.4115 33.899H93.7274C93.7126 34.1528 93.7569 34.38 93.8308 34.6071C93.9047 34.8342 94.0229 35.0212 94.1854 35.1949C94.348 35.3686 94.5549 35.5022 94.8061 35.609C95.0573 35.7159 95.3528 35.756 95.6926 35.756C96.1212 35.756 96.4906 35.6625 96.7566 35.4888C97.0373 35.3018 97.2146 35.0346 97.3033 34.6605H98.3229C98.1751 35.275 97.8648 35.756 97.4067 36.0766Z" fill="#006272"/>
</svg>
