<svg width="130" height="27" viewBox="0 0 130 27" fill="none" xmlns="http://www.w3.org/2000/svg">
<path fill-rule="evenodd" clip-rule="evenodd" d="M13.5753 12.8271H-0.000366211V0H13.5753V12.8271ZM28.0559 12.8271H14.4803V0H28.0559V12.8271ZM-0.000366211 26.5705H13.5753V13.7434H-0.000366211V26.5705ZM28.0559 26.5705H14.4803V13.7434H28.0559V26.5705ZM129.421 9.65674V11.9668H126.603V17.652C126.603 18.3806 126.732 18.9015 126.985 19.1993C127.235 19.4945 127.638 19.644 128.183 19.644C128.328 19.644 128.516 19.6119 128.74 19.5477C128.963 19.4847 129.153 19.3999 129.306 19.2962L129.421 19.2191V21.5505L129.384 21.5729C129.216 21.6707 128.931 21.7624 128.513 21.8541C128.102 21.9434 127.699 21.989 127.317 21.989C124.99 21.989 123.81 20.6983 123.81 18.1513V11.9668H119.633V21.6987H116.816V11.9668H114.854V9.65674H116.816V7.99013C116.816 7.15277 116.998 6.39609 117.356 5.74093C117.715 5.08502 118.227 4.56913 118.879 4.20775C119.53 3.84688 120.277 3.66479 121.098 3.66479C121.751 3.66479 122.277 3.73608 122.663 3.87763L122.712 3.89593V6.32874L122.608 6.28147C122.194 6.09329 121.782 5.99786 121.384 5.99786C120.83 5.99786 120.396 6.1788 120.093 6.53472C119.788 6.89495 119.633 7.43511 119.633 8.14096V9.65686H123.81V6.93574L123.862 6.9196L126.508 6.09519L126.603 6.06546V9.65674H129.421ZM106.169 18.6195C106.736 19.2993 107.542 19.6444 108.565 19.6444C109.593 19.6444 110.379 19.3056 110.903 18.6388C111.429 17.9669 111.696 16.9624 111.696 15.6548C111.696 14.363 111.412 13.3716 110.853 12.7073C110.296 12.0465 109.518 11.7117 108.542 11.7117C107.535 11.7117 106.737 12.0622 106.169 12.753C105.597 13.4483 105.308 14.4476 105.308 15.7245C105.308 16.9622 105.597 17.9363 106.169 18.6195ZM108.69 9.36664C106.74 9.36664 105.191 9.94848 104.086 11.096C102.982 12.2437 102.423 13.8319 102.423 15.8169C102.423 17.7023 102.969 19.2189 104.047 20.3237C105.124 21.4289 106.59 21.9888 108.405 21.9888C110.295 21.9888 111.813 21.3988 112.917 20.2354C114.021 19.0732 114.581 17.5 114.581 15.5614C114.581 13.6465 114.056 12.1186 113.02 11.0212C111.984 9.92319 110.527 9.36664 108.69 9.36664ZM94.6195 10.3933C95.4577 9.71214 96.5551 9.36664 97.8818 9.36664C98.2878 9.36664 98.7545 9.41569 99.2691 9.5129C99.786 9.61074 100.212 9.73133 100.534 9.87224L100.579 9.89156V12.5104L100.463 12.4303C100.114 12.188 99.6945 11.9899 99.2174 11.842C98.7399 11.6941 98.2598 11.6186 97.7906 11.6186C97.2849 11.6186 96.8816 11.7348 96.5919 11.9631C96.3045 12.1903 96.1645 12.4709 96.1645 12.8211C96.1645 13.2161 96.278 13.5281 96.5013 13.7487C96.7331 13.977 97.2948 14.2745 98.1717 14.6328C99.2723 15.0846 100.061 15.5958 100.516 16.1526C100.974 16.714 101.206 17.4101 101.206 18.2218C101.206 19.3469 100.775 20.2669 99.9234 20.9569C99.0775 21.6421 97.9182 21.9893 96.4786 21.9893C96.0121 21.9893 95.4751 21.926 94.884 21.8016C94.2919 21.6773 93.7894 21.5194 93.3909 21.3321L93.348 21.3118V18.551L93.4649 18.6364C93.9464 18.9884 94.4782 19.2629 95.0417 19.4504C95.6091 19.6407 96.1272 19.7373 96.5813 19.7373C97.8058 19.7373 98.4008 19.3436 98.4008 18.5346C98.4008 18.2505 98.3422 18.0202 98.2265 17.852C98.1074 17.6801 97.8966 17.5036 97.5996 17.328C97.2957 17.1488 96.8174 16.9215 96.1759 16.6528C95.4128 16.319 94.837 15.9909 94.464 15.6777C94.0881 15.3619 93.8051 14.9856 93.6223 14.5583C93.4406 14.1324 93.3482 13.6302 93.3482 13.0649C93.3482 11.9774 93.776 11.0786 94.6195 10.3933ZM86.006 19.6444C84.984 19.6444 84.1778 19.2993 83.6099 18.6195C83.0383 17.9363 82.7493 16.9624 82.7493 15.7245C82.7493 14.4476 83.0387 13.4483 83.6105 12.753C84.1784 12.0622 84.9765 11.7117 85.9834 11.7117C86.9596 11.7117 87.737 12.0465 88.294 12.7073C88.8537 13.3716 89.1376 14.363 89.1376 15.6548C89.1376 16.9624 88.8704 17.9669 88.3438 18.6388C87.8207 19.3056 87.0346 19.6444 86.006 19.6444ZM81.5277 11.096C82.6316 9.94848 84.1808 9.36664 86.1315 9.36664C87.9684 9.36664 89.4253 9.92319 90.4615 11.0212C91.4973 12.1186 92.0222 13.6465 92.0222 15.5614C92.0222 17.5 91.4627 19.0732 90.3591 20.2354C89.2551 21.3988 87.7365 21.9888 85.8462 21.9888C84.032 21.9888 82.5657 21.4289 81.4882 20.3237C80.4106 19.2189 79.864 17.7031 79.864 15.8169C79.864 13.8319 80.424 12.2437 81.5277 11.096ZM75.5888 11.7422V9.65674H72.8067V21.6984H75.5888V15.5386C75.5888 14.4912 75.822 13.6307 76.2823 12.9808C76.7367 12.3386 77.3422 12.0132 78.0816 12.0132C78.3322 12.0132 78.6135 12.0552 78.9181 12.1385C79.2196 12.2212 79.438 12.311 79.5668 12.4056L79.6838 12.4918V9.63615L79.6387 9.61646C79.3796 9.50438 79.0131 9.44784 78.5493 9.44784C77.8502 9.44784 77.2245 9.67656 76.6886 10.1269C76.2183 10.5227 75.8783 11.0654 75.6183 11.7422H75.5888ZM64.4413 10.1946C65.4096 9.6453 66.5481 9.36664 67.8244 9.36664C68.3215 9.36664 68.8447 9.42357 69.3796 9.53653C69.9167 9.64975 70.3494 9.79905 70.6667 9.97987L70.7044 10.0015V12.7358L70.5877 12.6495C69.7446 12.0269 68.8536 11.7117 67.9391 11.7117C66.8701 11.7117 65.9921 12.0807 65.3298 12.8081C64.6654 13.5377 64.3284 14.5266 64.3284 15.7473C64.3284 16.9604 64.6516 17.9244 65.2891 18.611C65.9252 19.2966 66.8016 19.6444 67.8932 19.6444C68.2863 19.6444 68.7346 19.5561 69.2263 19.3814C69.7193 19.2065 70.1775 18.9638 70.5874 18.6598L70.7044 18.5729V21.1679L70.6678 21.1893C69.7627 21.72 68.6339 21.9892 67.3118 21.9892C66.1788 21.9892 65.1555 21.7359 64.2702 21.2364C63.3836 20.7363 62.6832 20.0152 62.1884 19.0934C61.6938 18.1732 61.4436 17.1291 61.4436 15.9914C61.4436 14.6925 61.7016 13.5278 62.21 12.5307C62.7205 11.5312 63.471 10.7452 64.4413 10.1946ZM59.5275 9.65698H56.7454V21.6986H59.5275V9.65698ZM56.9795 5.00026C57.3076 4.68577 57.707 4.52707 58.1649 4.52707C58.6465 4.52707 59.0536 4.69047 59.3745 5.01297C59.6956 5.3361 59.8586 5.72912 59.8586 6.18134C59.8586 6.64272 59.6911 7.03244 59.3609 7.33994C59.0328 7.64553 58.6306 7.80068 58.165 7.80068C57.6992 7.80068 57.2986 7.64553 56.9744 7.33943C56.648 7.03243 56.4829 6.6426 56.4829 6.18134C56.4829 5.71272 56.65 5.31564 56.9795 5.00026ZM51.2234 8.76842V21.6984H54.0626V4.89569H50.133L45.1382 17.3763L40.291 4.89569H36.2013V21.6983H38.8695V8.76715H38.9611L44.0796 21.6984H46.0931L51.1318 8.76842H51.2234Z" fill="#C4C4C4"/>
</svg>
