<svg width="98" height="27" viewBox="0 0 98 27" fill="none" xmlns="http://www.w3.org/2000/svg">
<path fill-rule="evenodd" clip-rule="evenodd" d="M13.4033 25.0844C11.9369 25.346 10.4447 25.4244 8.90116 25.6332L4.19304 11.6267V26.2344C2.72666 26.3911 1.3889 26.6002 -0.000366211 26.8092V0.050293H3.91022L9.26128 15.2331V0.050293H13.4033V25.0844ZM21.5073 9.84971C23.1024 9.84971 25.5464 9.77129 27.0128 9.77129V13.9523C25.1861 13.9523 23.0509 13.9523 21.5073 14.0307V20.2502C23.9257 20.0934 26.344 19.8842 28.7879 19.8058V23.8298L17.3909 24.7446V0.050293H28.7879V4.23138H21.5073V9.84971ZM44.0953 4.23148H39.8247V23.4644C38.4355 23.4644 37.0462 23.4644 35.7086 23.5165V4.23148H31.438V0.050293H44.0955L44.0953 4.23148ZM50.7843 9.56234H56.4185V13.7433H50.7843V23.2293H46.7449V0.050293H58.2451V4.23138H50.7843V9.56234ZM64.934 19.5707C67.2752 19.6228 69.642 19.8061 71.9318 19.9365V24.0654C68.2529 23.83 64.5739 23.5952 60.8178 23.5165V0.050293H64.934V19.5707ZM75.4048 24.3528C76.7169 24.4314 78.1062 24.5098 79.4439 24.6663V0.050293H75.4048V24.3528ZM97.4786 0.050293L92.2559 12.7765L97.4786 26.8092C95.9348 26.6002 94.3913 26.3127 92.8476 26.0513L89.8891 18.3165L86.8794 25.4244C85.3869 25.1628 83.9462 25.0844 82.4544 24.8754L87.754 12.6196L82.9687 0.050293H87.3935L90.0948 7.07975L92.9764 0.050293H97.4786Z" fill="#C4C4C4"/>
</svg>
