<svg width="100" height="21" viewBox="0 0 100 21" fill="none" xmlns="http://www.w3.org/2000/svg">
<path fill-rule="evenodd" clip-rule="evenodd" d="M16.1757 0H20.008V12.1532C20.008 18.5474 15.9216 20.7917 9.99322 20.7917C4.08599 20.7917 -0.000366211 18.5474 -0.000366211 12.1532V0.486975C-0.000366211 0.14821 0.169017 0 0.507782 0H4.34007V11.9627C4.34007 15.7949 6.0339 17.3829 9.99322 17.3829C13.9737 17.3829 15.6675 15.7949 15.6675 11.9627V0.486975C15.6675 0.14821 15.8369 0 16.1757 0ZM59.5589 3.32414V8.44797H69.256C69.4254 8.44797 69.4889 8.53266 69.4254 8.70204L68.3668 11.3275C68.2609 11.5604 68.1127 11.6662 67.7951 11.6662H62.0996C60.2364 11.6662 59.5589 12.2379 59.5589 13.4871V17.1077H72.686C72.8554 17.1077 72.9189 17.1924 72.8554 17.3617L71.7544 20.093C71.6485 20.3259 71.5003 20.4318 71.1827 20.4318H56.8064C55.7054 20.4318 55.2819 20.0507 55.2819 19.2249V1.41858C55.2819 0.423457 55.8324 0 57.2722 0H72.686C72.8554 0 72.9189 0.0846914 72.8554 0.232901L71.7544 2.98537C71.6485 3.21827 71.5003 3.32414 71.1827 3.32414H59.5589ZM47.3845 14.7786C47.3845 18.865 44.505 20.4318 40.4609 20.4318H29.7475C28.6253 20.4318 28.223 20.0507 28.223 19.2249V1.41858C28.223 0.423457 28.7524 0 30.2133 0H38.9153C42.7264 0 46.4105 0.656358 46.4105 5.18735C46.4105 7.13525 45.7118 8.78673 44.0392 9.65482C46.347 10.2688 47.3845 12.3438 47.3845 14.7786ZM32.4364 8.51148H39.2329C41.4772 8.51148 42.1124 7.6434 42.1124 5.86488C42.1124 4.08636 41.4772 3.23945 39.2329 3.23945H32.4364V8.51148ZM43.0864 14.3975C43.0864 12.5132 42.43 11.5815 40.0163 11.5815H34.9984C33.1351 11.5815 32.4364 12.1532 32.4364 13.4024V17.1924H40.0163C42.43 17.1924 43.0864 16.2607 43.0864 14.3975ZM99.4061 20.4318H95.5103C95.1927 20.4318 95.0657 20.3048 94.9387 20.093L90.81 12.6402H87.02C85.1568 12.6402 84.4581 13.2119 84.4581 14.4611V20.4318H80.7317C80.3929 20.4318 80.2235 20.2624 80.2235 19.9448V1.41858C80.2235 0.423457 80.774 0 82.2138 0H90.9582C96.0608 0 99.1309 1.33389 99.1309 6.28834C99.1309 10.1206 97.2889 11.6239 95.0022 12.2167L99.5967 20.0719C99.6814 20.1989 99.6814 20.4318 99.4061 20.4318ZM94.8328 6.37303C94.8328 4.29809 94.2611 3.28179 91.5934 3.28179H84.4581V9.46426H91.5934C94.2611 9.46426 94.8328 8.46914 94.8328 6.37303Z" fill="#C4C4C4"/>
</svg>
