<svg width="81" height="25" viewBox="0 0 81 25" fill="none" xmlns="http://www.w3.org/2000/svg">
<path fill-rule="evenodd" clip-rule="evenodd" d="M35.0405 24.5609H28.4522L32.5698 0.436921H39.1587L35.0405 24.5609ZM22.9098 0.436921L16.6289 17.0296L15.8857 13.4565L15.8864 13.4578L13.6696 2.60901C13.6696 2.60901 13.4015 0.436921 10.5443 0.436921H0.160781L0.0389404 0.845397C0.0389404 0.845397 3.21425 1.47521 6.9304 3.60277L12.6542 24.5615H19.5186L30.0003 0.436921H22.9098ZM74.7295 24.5609H80.7789L75.5045 0.436276H70.2085C67.7629 0.436276 67.1672 2.23409 67.1672 2.23409L57.3414 24.5609H64.2092L65.5826 20.9775H73.9578L74.7295 24.5609ZM67.4799 16.0275L70.9416 6.99976L72.889 16.0275H67.4799ZM57.8565 6.23818L58.7967 1.0577C58.7967 1.0577 55.8956 0.00585938 52.8712 0.00585938C49.6018 0.00585938 41.8378 1.36809 41.8378 7.99211C41.8378 14.2244 50.9502 14.3019 50.9502 17.5755C50.9502 20.8491 42.7767 20.2625 40.0793 18.1982L39.0998 23.6149C39.0998 23.6149 42.0416 24.9771 46.5362 24.9771C51.0321 24.9771 57.8146 22.7579 57.8146 16.7179C57.8146 10.4455 48.6203 9.86155 48.6203 7.13451C48.621 4.40682 55.0373 4.75722 57.8565 6.23818Z" fill="#C4C4C4"/>
</svg>
